<?xml version="1.0" encoding="UTF-8"?>
<svg width="512" height="512" viewBox="0 0 512 512" xmlns="http://www.w3.org/2000/svg">
    <path id="rect2982-2" fill="#2980b9" fill-rule="evenodd" stroke="none"
          d="M 55.066853 94.276733 C 47.242577 94.276733 40.943035 100.574554 40.943035 108.398834 L 40.943035 145.727478 L 40.943035 265.859924 L 40.943035 387.405426 L 40.943035 394.712524 C 40.943035 400.700073 45.762833 405.519867 51.750412 405.519867 L 460.249725 405.519867 C 466.237305 405.519867 471.058807 400.700073 471.058807 394.712524 L 471.058807 265.859955 L 471.056793 265.859955 L 471.056793 145.727509 C 471.056793 133.944214 461.570953 124.458374 449.787659 124.458374 L 230.819336 124.458374 C 225.003174 124.458374 222.705368 123.773163 218.980743 120.26947 L 197.013016 98.50058 C 196.938217 98.424377 196.861374 98.350342 196.784882 98.275848 L 196.740585 98.233246 L 196.738586 98.235229 C 194.201233 95.786316 190.750504 94.276978 186.928864 94.276978 Z"/>
    <filter id="filter1" x="0" y="0" width="512" height="512" color-interpolation-filters="sRGB">
        <feGaussianBlur stdDeviation="5.159158"/>
    </filter>
    <path id="rect2982-5" fill="#000000" fill-rule="evenodd" stroke="none" opacity="0.3" filter="url(#filter1)"
          d="M 54.147114 154.809998 C 42.735657 154.809998 33.549133 163.097412 33.549133 173.391968 L 47.729328 384.536011 L 47.729328 390.919922 C 47.729328 396.151001 52.39703 400.361847 58.195663 400.361847 L 453.804474 400.361847 C 459.603119 400.361847 464.27243 396.151001 464.27243 390.919922 L 478.450867 173.391968 C 478.450867 163.097412 469.264343 154.809998 457.852875 154.809998 L 54.14698 154.809998 Z"/>
    <path id="rect2982" fill="#4aaee8" fill-rule="evenodd" stroke="none"
          d="M 47.569942 157.230835 C 35.786655 157.230835 26.300798 166.022461 26.300798 176.94342 L 40.943035 400.93454 L 40.943035 407.706848 C 40.943035 413.256226 45.762833 417.723267 51.750412 417.723267 L 460.249725 417.723267 C 466.237305 417.723267 471.058807 413.256226 471.058807 407.706848 L 485.699219 176.94342 C 485.699219 166.022461 476.213348 157.230835 464.430084 157.230835 L 47.569805 157.230835 Z"/>
    <path id="Path-copy" fill="#a4c439" stroke="#000000" stroke-width="3" stroke-opacity="0.324528"
          stroke-linecap="round" stroke-linejoin="round"
          d="M 189.79213 260.414368 C 183.532074 260.411255 178.458221 265.497467 178.45668 271.752869 L 178.464401 319.226135 C 178.465942 325.503174 183.542877 330.569305 189.804489 330.567749 C 196.069168 330.567749 201.144562 325.501648 201.138382 319.227661 L 201.138382 271.746704 C 201.135284 265.492828 196.055267 260.411255 189.79213 260.414368 M 281.218597 217.781708 L 289.131317 203.332458 C 289.552979 202.577179 289.27652 201.616455 288.511963 201.188629 C 287.739685 200.779327 286.786682 201.057343 286.37738 201.817261 L 278.384338 216.417877 C 271.659393 213.424561 264.132813 211.747162 256.169098 211.754883 C 248.227036 211.747162 240.703537 213.419922 234.006378 216.39624 L 226.004074 201.832703 C 225.588593 201.065063 224.630966 200.787048 223.875671 201.205627 C 223.106491 201.621124 222.823837 202.583344 223.251678 203.337097 L 231.167496 217.7771 C 215.613892 225.797943 205.104782 241.073517 205.114044 258.611877 L 307.236511 258.599518 C 307.239594 241.067322 296.749023 225.822632 281.218597 217.781708 M 232.942184 240.111267 C 230.592926 240.106628 228.674591 238.194489 228.674591 235.831299 C 228.674591 233.478973 230.586746 231.545197 232.946808 231.546753 C 235.314606 231.545197 237.229843 233.478973 237.232941 235.831299 C 237.232941 238.191376 235.313065 240.109711 232.942184 240.111267 M 279.442352 240.103546 C 277.082275 240.106628 275.160889 238.192932 275.160889 235.823608 C 275.170135 233.475861 277.079193 231.542114 279.443909 231.532837 C 281.793182 231.540558 283.719208 233.475861 283.717682 235.825134 C 283.722321 238.188293 281.802429 240.105103 279.442352 240.103546 M 205.531082 262.556641 L 205.548065 336.131226 C 205.543427 342.82373 210.957077 348.226563 217.644974 348.226563 L 225.88205 348.229675 L 225.891312 373.35022 C 225.889771 379.605621 230.974426 384.690277 237.220581 384.690277 C 243.485275 384.690277 248.560654 379.601013 248.56221 373.342468 L 248.55603 348.228149 L 263.860962 348.22348 L 263.867126 373.342468 C 263.867126 379.593262 268.953339 384.688721 275.20105 384.676392 C 281.465729 384.68103 286.54422 379.591736 286.542664 373.333221 L 286.534943 348.220398 L 294.801361 348.214233 C 301.473816 348.217316 306.901337 342.808289 306.904449 336.114227 L 306.890533 262.539642 L 205.531082 262.556641 Z M 333.935577 271.735901 C 333.934052 265.472748 328.860199 260.397369 322.597046 260.400452 C 316.337006 260.394287 311.264709 265.477386 311.264709 271.74054 L 311.273956 319.216858 C 311.27243 325.48465 316.344727 330.550781 322.609406 330.552307 C 328.871033 330.550781 333.941772 325.48465 333.943298 319.210693 L 333.935577 271.735901 Z"/>
</svg>
